<?xml version="1.0" standalone="no"?><!DOCTYPE svg PUBLIC "-//W3C//DTD SVG 1.1//EN" "http://www.w3.org/Graphics/SVG/1.1/DTD/svg11.dtd"><svg t="1596033069763" class="icon" viewBox="0 0 1024 1024" version="1.1" xmlns="http://www.w3.org/2000/svg" p-id="2813" xmlns:xlink="http://www.w3.org/1999/xlink" width="200" height="200"><defs><style type="text/css"></style></defs><path d="M111 206.4h740.7c13.8 0 25-11.2 25-25s-11.2-25-25-25H111c-13.8 0-25 11.2-25 25s11.2 25 25 25zM111 508.6h459.6c13.8 0 25-11.2 25-25s-11.2-25-25-25H111c-13.8 0-25 11.2-25 25s11.2 25 25 25zM372.7 760.8H111c-13.8 0-25 11.2-25 25s11.2 25 25 25h261.7c13.8 0 25-11.2 25-25s-11.2-25-25-25zM929.8 696.5H772.9V539.6c0-13.8-11.2-25-25-25s-25 11.2-25 25v156.9H566c-13.8 0-25 11.2-25 25s11.2 25 25 25h156.9v156.9c0 13.8 11.2 25 25 25s25-11.2 25-25V746.5h156.9c13.8 0 25-11.2 25-25s-11.2-25-25-25z" p-id="2814" fill="#ffffff"></path></svg>