<?xml version="1.0" standalone="no"?><!DOCTYPE svg PUBLIC "-//W3C//DTD SVG 1.1//EN" "http://www.w3.org/Graphics/SVG/1.1/DTD/svg11.dtd"><svg t="1595941548828" class="icon" viewBox="0 0 1024 1024" version="1.1" xmlns="http://www.w3.org/2000/svg" p-id="4679" xmlns:xlink="http://www.w3.org/1999/xlink" width="200" height="200"><defs><style type="text/css"></style></defs><path d="M318.60863994 652.21978279s1.91476594 162.01865657 1.91476593 170.85603783v16.64373472c0 8.69009158 7.36448439 15.75999659 16.64373473 15.7599966h24.1555088c9.13196064 0 16.64373472-7.06990501 16.64373471-15.7599966v-16.64373472c0-8.69009158 7.36448439-15.75999659 16.64373472-15.75999659h34.46578694c9.13196064 0 16.64373472 7.06990501 16.64373473 15.75999659v16.64373472c0 8.69009158 7.36448439 15.75999659 16.64373472 15.7599966h24.15550879c9.13196064 0 16.64373472-7.06990501 16.64373472-15.7599966v-16.64373472c0-8.69009158 7.36448439-15.75999659 16.64373471-15.75999659h34.46578695c9.13196064 0 16.64373472 7.06990501 16.64373472 15.75999659v16.64373472c0 8.69009158 7.36448439 15.75999659 16.64373472 15.7599966h24.15550879c9.13196064 0 16.64373472-7.06990501 16.64373475-15.7599966v-16.64373472c0-8.69009158 7.36448439-15.75999659 16.64373469-15.75999659h34.46578696c9.13196064 0 16.64373472 7.06990501 16.64373472 15.75999659v16.64373472c0 8.69009158 7.36448439 15.75999659 16.64373472 15.7599966h24.15550881c9.13196064 0 16.64373472-7.06990501 16.6437347-15.7599966v-16.64373472c0-8.69009158 7.36448439-15.75999659 16.64373474-15.75999659h34.46578693c9.13196064 0 16.64373472 7.06990501 16.64373471 15.75999659v16.64373472c0 8.69009158 7.36448439 15.75999659 16.64373472 15.7599966h24.15550882c9.13196064 0 16.64373472-7.06990501 16.64373471-15.7599966v-16.64373472-170.85603783c0-8.69009158-7.36448439-15.75999659-16.64373471-15.7599966H335.25237466c-9.13196064-0.1472897-16.64373472 6.92261532-16.64373472 15.7599966z" fill="#F7554A" p-id="4680"></path><path d="M861.66571883 872.41786603H837.51021003c-18.55850066 0-33.72933851-14.72896878-33.72933851-32.84560038V824.25413812h-33.58204881v15.31812753c0 18.11663161-15.17083783 32.84560039-33.72933852 32.84560038H712.3139754c-18.55850066 0-33.72933851-14.72896878-33.7293385-32.84560038V824.25413812h-33.58204884v15.31812753c0 18.11663161-15.17083783 32.84560039-33.72933849 32.84560038H587.11774077c-18.55850066 0-33.72933851-14.72896878-33.7293385-32.84560038V824.25413812h-33.58204883v15.31812753c0 18.11663161-15.17083783 32.84560039-33.7293385 32.84560038H461.92150614c-18.55850066 0-33.72933851-14.72896878-33.72933849-32.84560038V824.25413812h-33.58204882v15.31812753c0 18.11663161-15.17083783 32.84560039-33.72933851 32.84560038H336.72527154c-18.55850066 0-33.72933851-14.72896878-33.72933853-32.84560038v-16.64373472c0-8.54280189-1.91476594-168.94127189-1.91476594-170.56145847v-0.14728967c0-18.11663161 15.17083783-32.84560039 33.72933851-32.84560039h526.41334417c18.55850066 0 33.72933851 14.72896878 33.7293385 32.84560039v187.35248286c0.44186907 18.11663161-14.58167909 32.84560039-33.28746942 32.84560038z m-148.76258468-34.17120757h23.27177067v-15.31812753c0-18.11663161 15.17083783-32.84560039 33.72933851-32.84560037h34.46578693c18.55850066 0 33.72933851 14.72896878 33.72933851 32.84560037v15.31812753h23.27177068V653.39810029H335.84153341c0.1472897 17.23289347 1.91476594 161.13491844 1.91476593 169.53043064v15.31812753h23.27177069v-15.31812753c0-18.11663161 15.17083783-32.84560039 33.72933849-32.84560037h34.46578695c18.55850066 0 33.72933851 14.72896878 33.72933849 32.84560037v15.31812753h23.27177068v-15.31812753c0-18.11663161 15.17083783-32.84560039 33.72933851-32.84560037h34.46578693c18.55850066 0 33.72933851 14.72896878 33.72933851 32.84560037v15.31812753h23.27177066v-15.31812753c0-18.11663161 15.17083783-32.84560039 33.72933851-32.84560037h34.46578694c18.55850066 0 33.72933851 14.72896878 33.72933851 32.84560037v15.31812753z" fill="#4C466D" p-id="4681"></path><path d="M318.60863994 330.83368401v361.74347323c0 31.22541381 25.33382629 56.55924012 56.5592401 56.5592401h486.49783879c15.02354815 0 29.31064787-5.89158752 39.91550537-16.49644502l2.79850407-2.79850407c65.83849045-65.83849045 65.83849045-172.47622441 0-238.16742517-10.60485751-10.60485751-25.03924691-16.49644503-39.91550539-16.49644504H703.77117351c-31.22541381 0-56.55924012-25.33382629-56.55924012-56.5592401V330.83368401c0-31.22541381-25.33382629-56.55924012-56.55924011-56.5592401H375.16788004c-31.22541381 0-56.55924012 25.33382629-56.5592401 56.5592401z" fill="#49DAF2" p-id="4682"></path><path d="M861.66571883 766.07471143H375.16788004c-40.50466414 0-73.64484389-32.99289006-73.6448439-73.64484389V330.83368401c0-40.50466414 32.99289006-73.64484389 73.6448439-73.64484388h215.63210293c40.50466414 0 73.64484389 32.99289006 73.64484389 73.64484388v87.63736424c0 21.79887379 17.67476253 39.47363634 39.47363634 39.47363633h160.69304937c19.58952848 0 38.14802914 7.65906378 51.99325978 21.50429441 35.05494569 35.05494569 54.34989479 81.59848704 54.34989481 131.08782214s-19.2949491 96.18016613-54.34989481 131.08782212l-2.79850405 2.79850408c-13.99252034 13.99252034-32.40373131 21.65158411-52.14054947 21.6515841zM375.16788004 291.36004768c-21.79887379 0-39.47363634 17.67476253-39.47363633 39.47363633v361.74347323c0 21.79887379 17.67476253 39.47363634 39.47363633 39.47363633h486.49783879c10.45756784 0 20.6205563-4.27140094 27.83775098-11.48859567l2.79850407-2.79850407c28.57419943-28.57419943 44.33419602-66.57493887 44.33419602-107.07960301 0-40.35737445-15.75999659-78.50540358-44.33419602-107.07960302-7.51177407-7.51177407-17.38018317-11.48859565-27.837751-11.48859565H703.77117351c-40.50466414 0-73.64484389-32.99289006-73.64484389-73.6448439V330.83368401c0-21.79887379-17.67476253-39.47363634-39.47363634-39.47363633H375.16788004z" fill="#4C466D" p-id="4683"></path><path d="M293.7166827 499.03850747h-29.89980663c-13.69794096 0-24.89195725-11.19401627-24.89195723-24.89195723V339.67106528c0-13.69794096 11.19401627-24.89195725 24.89195723-24.89195724h29.89980663c13.69794096 0 24.89195725 11.19401627 24.89195724 24.89195724v134.47548496c0 13.55065127-11.19401627 24.89195725-24.89195724 24.89195723z" fill="#49DAF2" p-id="4684"></path><path d="M293.7166827 515.97682157h-29.89980663c-23.12448098 0-41.97756103-18.85308003-41.97756101-41.97756103v-134.47548495c0-23.12448098 18.85308003-41.97756103 41.97756101-41.97756102h29.89980663c23.12448098 0 41.97756103 18.85308003 41.97756101 41.97756102v134.47548495c0 23.12448098-18.85308003 41.97756103-41.97756101 41.97756103z m-29.89980663-184.25939944c-4.27140094 0-7.95364315 3.68224221-7.95364314 7.95364315v134.47548496c0 4.27140094 3.68224221 7.95364315 7.95364314 7.95364315h29.89980663c4.27140094 0 7.95364315-3.68224221 7.95364313-7.95364315V339.67106528c0-4.27140094-3.68224221-7.95364315-7.95364313-7.95364315h-29.89980663z" fill="#4C466D" p-id="4685"></path><path d="M300.19742894 561.78391447H257.18884013c-10.16298847 0-18.41121097-8.24822251-18.41121099-18.41121097v-63.48185543c0-10.16298847 8.24822251-18.41121097 18.41121099-18.41121098h43.00858881c10.16298847 0 18.41121097 8.24822251 18.411211 18.41121098v63.48185543c0 10.16298847-8.24822251 18.41121097-18.411211 18.41121097z" fill="#D7F7FF" p-id="4686"></path><path d="M300.19742894 578.86951826H257.18884013c-19.58952848 0-35.49681476-15.90728628-35.49681476-35.49681476v-63.48185543c0-19.58952848 15.90728628-35.49681476 35.49681476-35.49681477h43.00858881c19.58952848 0 35.49681476 15.90728628 35.49681477 35.49681477v63.48185543c0 19.58952848-15.90728628 35.49681476-35.49681477 35.49681476zM257.18884013 478.56524087c-0.73644845 0-1.3256072 0.58915875-1.3256072 1.3256072v63.48185543c0 0.73644845 0.58915875 1.3256072 1.3256072 1.32560719h43.00858881c0.73644845 0 1.3256072-0.58915875 1.3256072-1.32560719v-63.48185543c0-0.73644845-0.58915875-1.3256072-1.3256072-1.3256072H257.18884013z" fill="#4C466D" p-id="4687"></path><path d="M522.75214722 737.79509138c0-117.68446054-88.81568174-214.6010751-203.11247948-227.41527795v182.19734381c0 31.22541381 25.33382629 56.55924012 56.55924012 56.5592401h146.25865998c0.29457937-3.82953187 0.29457937-7.51177407 0.29457938-11.34130596z" fill="#D7F7FF" p-id="4688"></path><path d="M538.80672317 766.07471143H376.19890786c-40.50466414 0-73.64484389-32.99289006-73.64484389-73.64484389V491.23215402l19.00036972 2.06205563c124.45978619 13.99252034 218.2833173 119.01006774 218.2833173 244.35359204 0 4.12411126-0.1472897 8.10093283-0.29457936 12.0777544l-0.73644846 16.34915534zM336.72527154 530.26392129v162.16594625c0 21.79887379 17.67476253 39.47363634 39.47363632 39.47363633h129.46763556C503.01532903 633.07212336 432.46356859 549.85344976 336.72527154 530.26392129z" fill="#4C466D" p-id="4689"></path><path d="M319.78695743 347.33012906h327.57226566v59.35774417H319.78695743z" fill="#D7F7FF" p-id="4690"></path><path d="M664.29753717 423.9207667H302.70135365v-93.52895175h361.74347321v93.52895175zM336.72527154 389.74955915h293.40105808v-25.18653662H336.72527154V389.74955915z" fill="#4C466D" p-id="4691"></path><path d="M904.52701797 491.52673341c-10.60485751-10.60485751-25.03924691-16.49644503-39.9155054-16.49644504h-101.1880155V749.13639734h98.38951143c15.02354815 0 29.31064787-5.89158752 39.9155054-16.49644502l2.79850407-2.79850407c65.69120075-65.98578013 65.69120075-172.62351409 0-238.31471484z" fill="#D7F7FF" p-id="4692"></path><path d="M861.66571883 766.07471143H746.19060358V457.94468458h118.2736193c19.58952848 0 38.14802914 7.65906378 51.99325981 21.50429441 35.05494569 35.05494569 54.34989479 81.59848704 54.34989478 131.08782214s-19.2949491 96.18016613-54.34989478 131.08782212l-2.79850408 2.79850408c-13.84523065 13.99252034-32.25644163 21.65158411-51.99325978 21.6515841z m-81.30390767-34.02391786h81.30390767c10.45756784 0 20.6205563-4.27140094 27.83775098-11.48859567l2.79850407-2.79850407c28.57419943-28.57419943 44.33419602-66.57493887 44.33419602-107.07960301 0-40.35737445-15.75999659-78.50540358-44.33419602-107.07960302-7.51177407-7.51177407-17.38018317-11.48859565-27.837751-11.48859565h-84.10241172v239.93490142z" fill="#4C466D" p-id="4693"></path><path d="M318.60863994 692.13528816v0.44186908c0 24.59737787 15.75999659 45.51251353 37.85344976 53.31886697H880.22421948c7.95364315-2.79850407 15.31812754-7.2171947 21.35700472-13.4033616l2.79850407-2.79850407c11.48859565-11.48859565 20.76784598-24.15550879 28.27962006-37.55887038H318.60863994z" fill="#D7F7FF" p-id="4694"></path><path d="M883.17001324 762.981628H353.66358563l-2.79850407-1.03102782c-29.45793756-10.31027814-49.34204541-38.14802914-49.34204542-69.37344294V675.49155345l17.0856038-0.44186907h643.06677687l-13.99252031 25.33382631c-8.3955122 15.17083783-18.85308003 29.01606849-31.07812415 41.38840226l-2.79850405 2.79850407c-7.65906378 7.65906378-17.38018317 13.69794096-27.83775099 17.38018316l-2.79850407 1.03102782z m-523.46755041-34.17120757h517.4286732c4.71327001-1.91476594 8.83738127-4.71327001 12.37233378-8.39551221l2.79850407-2.79850406c2.65121438-2.65121438 5.30242877-5.44971845 7.80635345-8.3955122H339.52377559c3.97682157 8.69009158 11.04672658 15.75999659 20.17868724 19.58952847z" fill="#4C466D" p-id="4695"></path><path d="M158.5047493 845.61114285c-37.4115807 0-68.04783577-5.15513907-90.4358683-15.75999659-22.24074286-10.60485751-36.38055289-26.36485411-41.97756103-46.69083103-20.03139755-73.49755421 21.35700474-136.24296122 147.73155685-223.43845638 7.80635344-5.30242877 18.41121097-3.38766283 23.71363976 4.27140094 5.30242877 7.80635344 3.38766283 18.41121097-4.27140095 23.71363974-129.17305619 89.25755079-147.1423981 139.04146527-134.18090559 186.46874475 2.79850407 10.45756784 10.60485751 18.55850066 23.71363973 24.89195723 75.41232014 35.79139413 285.59470462-7.06990501 499.75391067-102.21904332C861.07656006 573.12522043 1007.7770891 426.42469139 988.6294297 355.87293093c-11.93046471-43.74503728-88.52110237-55.23363292-210.18238448-31.66728287-9.27925033 1.76747625-18.26392129-4.27140094-20.03139755-13.55065127-1.76747625-9.27925033 4.27140094-18.26392129 13.55065128-20.03139754 183.96482006-35.49681476 237.28368703 10.89943689 249.6560208 56.26466073 27.54317163 101.04072582-147.43697747 257.75695363-425.37261833 381.03842231C425.98282234 803.63358183 265.28977294 845.61114285 158.5047493 845.61114285z" fill="#4C466D" p-id="4696"></path><path d="M758.41564767 186.04792093c0.88373813 20.6205563-23.56635005 119.01006774-62.745407 120.63025429 39.32634663-1.62018657 71.43549857 87.93194362 72.61381608 115.03324617-1.17831749-27.10130255 26.51214381-119.15735742 62.745407-120.63025432-36.2332632 1.47289687-71.58278827-90.87773737-72.61381608-115.03324614z" fill="#FFFFFF" p-id="4697"></path><path d="M768.28405675 438.79702516c-9.13196064 0-16.64373472-7.2171947-17.08560378-16.34915534-1.17831749-27.6904613-32.40373131-99.71511862-54.79176385-98.68409081-9.72111939 0.44186907-17.38018317-6.92261532-17.82205222-16.34915534v-0.73644845c0-9.13196064 7.2171947-16.64373472 16.34915533-17.0856038 21.65158411-0.88373813 47.27998978-81.89306641 46.39625166-102.80820207-0.44186907-9.42654002 6.92261532-17.38018317 16.34915534-17.82205223 9.5738297-0.44186907 17.38018317 6.92261532 17.82205224 16.34915536 1.03102783 26.36485411 35.79139413 98.68409082 54.49718447 98.68409082h0.29457939c9.42654002-0.44186907 17.38018317 6.92261532 17.82205221 16.34915535v0.73644842c0 9.13196064-7.2171947 16.64373472-16.34915535 17.08560381-4.71327001 0.1472897-17.08560379 8.83738127-30.48896538 40.35737444-11.04672658 26.07027474-16.49644503 53.02428761-16.05457595 62.45082763v0.73644844c0 9.13196064-7.2171947 16.64373472-16.34915535 17.08560377h-0.58915876z m-36.52784255-134.03361589c13.99252034 12.51962347 25.48111599 31.3727035 34.17120756 50.52036292 1.3256072-3.38766283 2.65121438-6.77532564 3.97682157-10.01569877 7.80635344-18.26392129 16.49644503-32.69831069 25.92298504-42.86129915-13.84523065-12.96149253-25.62840566-32.10915193-34.61307664-51.40410104-7.06990501 19.58952848-16.79102442 39.62092601-29.45793753 53.76073604z" fill="#4C466D" p-id="4698"></path><path d="M78.23186946 379.88115005c-0.1472897 14.87625845-21.20971504 84.98614986-49.4893351 84.83886017 28.42690974 0.1472897 48.45830729 65.98578013 48.31101759 85.42801892 0.1472897-19.58952848 23.27177067-84.98614986 49.48933509-84.83886016-26.21756444 0-48.45830729-67.90054606-48.31101758-85.42801893z" fill="#FFFFFF" p-id="4699"></path><path d="M77.05355195 567.23363292c-9.42654002 0-17.08560379-7.65906378-17.08560378-17.08560378v-0.14728968c0-6.62803595-4.12411126-25.62840566-11.9304647-42.86129916-8.69009158-19.14765941-16.79102442-25.48111599-19.44223881-25.48111598-9.42654002 0-16.9383141-7.65906378-16.93831408-17.0856038v-0.14728967c0-9.42654002 7.65906378-16.9383141 17.08560378-16.9383141h0.14728968c11.04672658 0 32.10915193-51.40410106 32.40373132-67.90054606 0-9.42654002 7.65906378-16.9383141 17.08560378-16.93831412h0.14728969c9.42654002 0 16.9383141 7.80635344 16.9383141 17.23289348-0.1472897 15.46541722 20.03139755 65.39662137 31.51999319 68.34241512 0.44186907 0 0.88373813 0 1.32560719 0.14728971 8.83738127 0.73644845 15.61270692 8.10093283 15.46541721 17.08560377 0 9.42654002-7.80635344 16.9383141-17.23289348 16.93831412h-0.14728967c-10.89943689 1.91476594-32.25644163 49.78391447-32.40373132 67.90054606 0 9.42654002-7.51177407 16.9383141-16.9383141 16.93831409z m-15.46541723-102.5136227c5.44971845 6.1861669 11.04672658 14.58167909 16.34915536 25.77569537 4.71327001-9.27925033 10.31027814-18.26392129 16.79102441-25.3338263-5.89158752-6.77532564-11.34130596-15.75999659-16.49644503-26.5121438-4.71327001 9.5738297-10.16298847 18.70579035-16.64373474 26.07027473z" fill="#4C466D" p-id="4700"></path><path d="M178.97801591 515.24037312c-0.1472897 20.03139755-28.27962006 113.70763898-66.28035952 113.5603493 38.00073946 0.29457937 64.95475232 88.22652299 64.66017294 114.44408741 0.1472897-26.21756444 31.22541381-113.70763898 66.28035951-113.56034929-35.05494569-0.29457937-64.80746262-91.17231675-64.66017293-114.44408742z" fill="#FFFFFF" p-id="4701"></path><path d="M177.35782933 760.18312393c-9.5738297 0-17.08560379-7.65906378-17.08560376-17.08560378v-0.1472897c0.1472897-25.92298506-26.80672317-97.06390426-47.72185885-97.21119394-9.42654002 0-16.9383141-7.65906378-16.93831411-17.08560378v-0.14728969c0-9.42654002 7.65906378-16.9383141 17.08560378-16.93831408h0.14728969c6.92261532 0 19.2949491-12.0777544 31.66728289-39.17905696 11.19401627-24.59737787 17.38018317-50.81494228 17.38018314-57.44297826 0-9.42654002 7.65906378-17.08560379 17.23289347-16.93831408 9.42654002 0 16.9383141 7.80635344 16.93831412 17.23289346-0.1472897 24.74466755 30.48896537 97.06390426 47.72185884 97.21119396 9.42654002 0 16.9383141 7.65906378 16.93831408 17.08560379v0.14728967c0 9.42654002-7.65906378 16.9383141-17.08560378 16.93831411h-0.14728968c-5.15513907 0-17.52747284 9.86840908-30.78354476 37.264291-11.93046471 24.59737787-18.26392129 50.22578353-18.41121097 59.35774418 0.1472897 9.42654002-7.51177407 16.9383141-16.9383141 16.9383141z m-28.72148912-131.38240151c12.37233377 12.51962347 22.24074286 30.48896537 29.60522725 48.60559697 1.17831749-2.79850407 2.50392469-5.59700814 3.8295319-8.39551221 8.24822251-17.08560379 17.23289347-30.48896537 26.80672316-39.91550539-12.37233377-12.81420285-22.53532223-31.22541381-30.19438599-49.63662479-1.03102783 2.35663501-2.06205563 4.8605597-3.09308345 7.21719471-8.24822251 18.26392129-17.38018317 32.25644163-26.95401287 42.12485071z" fill="#4C466D" p-id="4702"></path><path d="M623.49829366 582.69905013m-58.76858543 0a58.76858542 58.76858542 0 1 0 117.53717085 0 58.76858542 58.76858542 0 1 0-117.53717085 0Z" fill="#F7554A" p-id="4703"></path><path d="M623.49829366 658.55323936c-41.83027133 0-75.85418921-34.02391789-75.85418922-75.85418923s34.02391789-75.85418921 75.85418922-75.8541892 75.85418921 34.02391789 75.85418921 75.8541892-34.02391789 75.85418921-75.85418921 75.85418923z m0-117.68446054c-22.97719129 0-41.83027133 18.70579035-41.83027133 41.83027131s18.70579035 41.83027133 41.83027133 41.83027134c22.97719129 0 41.68298165-18.70579035 41.68298165-41.83027134s-18.70579035-41.83027133-41.68298165-41.83027131z" fill="#4C466D" p-id="4704"></path><path d="M615.8392299 601.84670956l-13.99252034-24.30279849c-3.38766283-5.89158752 0.88373813-13.2560719 7.65906376-13.2560719h28.13233037c6.77532564 0 11.04672658 7.36448439 7.65906377 13.2560719L631.30464711 601.84670956c-3.68224221 5.89158752-12.0777544 5.89158752-15.46541721 0z" fill="#FFFFFF" p-id="4705"></path></svg>