<?xml version="1.0" standalone="no"?><!DOCTYPE svg PUBLIC "-//W3C//DTD SVG 1.1//EN" "http://www.w3.org/Graphics/SVG/1.1/DTD/svg11.dtd"><svg t="1606822759492" class="icon" viewBox="0 0 1024 1024" version="1.1" xmlns="http://www.w3.org/2000/svg" p-id="2531" xmlns:xlink="http://www.w3.org/1999/xlink" width="200" height="200"><defs><style type="text/css"></style></defs><path d="M165.9 182.2c-1.4 0-2.8-0.8-3.5-2l-10.9-19.5c-1.1-1.9-0.4-4.4 1.6-5.4 1.9-1.1 4.4-0.4 5.4 1.6l10.9 19.5c1.1 1.9 0.4 4.4-1.6 5.4-0.6 0.3-1.3 0.5-1.9 0.4z" fill="#00B7EE" p-id="2532"></path><path d="M150.6 177.9c-2.2 0-4-1.7-4.1-3.9 0-1.5 0.8-2.8 2.1-3.6l19.6-10.9c1.9-1.1 4.4-0.4 5.4 1.6s0.4 4.4-1.6 5.4l-19.6 10.9c-0.4 0.3-1.1 0.5-1.8 0.5z" fill="#00B7EE" p-id="2533"></path><path d="M852.6 122.5c-1.8 0-3.4-1.2-3.9-3l-6.3-23.4c-0.6-2.1 0.7-4.3 2.8-4.9s4.3 0.7 4.9 2.8l6.3 23.4c0.6 2.1-0.7 4.3-2.8 4.9-0.3 0.1-0.7 0.2-1 0.2z" fill="#ACD598" p-id="2534"></path><path d="M837.7 114c-2.2 0-4-1.8-4-4 0-1.8 1.2-3.4 3-3.9l23.4-6.3c2.1-0.6 4.3 0.7 4.9 2.8 0.6 2.1-0.7 4.3-2.8 4.9l-23.4 6.3c-0.3 0.1-0.7 0.2-1.1 0.2z" fill="#ACD598" p-id="2535"></path><path d="M937.8 221c-8.3 0-15-6.7-15-15s6.7-15 15-15 15 6.7 15 15-6.7 15-15 15z m0-22c-3.9 0-7 3.1-7 7s3.1 7 7 7 7-3.1 7-7-3.2-7-7-7z" fill="#57EBBF" p-id="2536"></path><path d="M994.3 143.5m-4.5 0a4.5 4.5 0 1 0 9 0 4.5 4.5 0 1 0-9 0Z" fill="#D3D462" p-id="2537"></path><path d="M43.7 99m-6 0a6 6 0 1 0 12 0 6 6 0 1 0-12 0Z" fill="#FF8095" p-id="2538"></path><path d="M83.1 196.4m-6 0a6 6 0 1 0 12 0 6 6 0 1 0-12 0Z" fill="#71E7DB" p-id="2539"></path><path d="M155.8 87c-10.5 0-19-8.5-19-19 0-5 2-9.8 5.5-13.4l0.1-0.1c7.4-7.4 19.4-7.4 26.9 0 7.4 7.4 7.4 19.4 0 26.9-3.6 3.6-8.5 5.6-13.5 5.6z m-7.7-26.8c-4.8 4.4-5.1 11.7-0.8 16.4s11.6 5 16.3 0.7 5-11.6 0.7-16.3-11.5-5-16.2-0.8z" fill="#B3D465" p-id="2540"></path><path d="M617.8 84.6m-3.5 0a3.5 3.5 0 1 0 7 0 3.5 3.5 0 1 0-7 0Z" fill="#22B4FF" p-id="2541"></path><path d="M978.8 306.6m-7.5 0a7.5 7.5 0 1 0 15 0 7.5 7.5 0 1 0-15 0Z" fill="#F2ED62" p-id="2542"></path><path d="M951.3 89.9c-11.1 0-20-9-19.9-20.1 0-5.2 2.1-10.2 5.7-14h0.1c7.8-7.8 20.5-7.7 28.2 0.1 7.8 7.8 7.7 20.5-0.1 28.2-3.7 3.8-8.7 5.9-14 5.8z m-9.5-29.4c-5.2 5.2-5.2 13.7 0 18.8 5.2 5.2 13.7 5.2 18.8 0 5.2-5.2 5.2-13.7 0-18.8s-13.5-5.2-18.8 0c0.1 0 0 0 0 0z" fill="#FF8700" p-id="2543"></path><path d="M364 71.9m-8 0a8 8 0 1 0 16 0 8 8 0 1 0-16 0Z" fill="#EBB4BE" p-id="2544"></path><path d="M799.8 889H266.3c14.2 33.7 23.4 62 23.4 62H189.3c-48 0-87-39-87-87 0-1 0-2 0.1-3 0-0.7-0.1-1.3-0.1-2V279.5c0-16.6 13.4-30 30-30h667.5c16.6 0 30 13.4 30 30V859c0 16.6-13.5 30-30 30z" fill="#22B4FF" p-id="2545"></path><path d="M253.8 951h-100c-26 0-48.2-10-64.2-29-14.7-17.5-22.8-41.6-22.8-68 0-0.9 0-1.8 0.1-2.7v-0.2c0-0.8-0.1-1.5-0.1-2.1V469c0-5.5 4.5-10 10-10s10 4.5 10 10v380c0 0.5 0 0.9 0.1 1.4v3.6c0 45.3 27.6 77 67 77h93.8c8.6-17.4 27-53.3 36.8-61.6l2.8-2.4 512.7 2c11 0 20-9 20-20V279.5c0-11-9-20-20-20H107c-11 0-20 9-20 20V338c0 5.5-4.5 10-10 10s-10-4.5-10-10v-58.5c0-22.1 17.9-40 40-40h693c22.1 0 40 17.9 40 40V849c0 22.1-17.9 40-40 40l-504.8-2c-6.8 8.8-21.3 35.5-32.3 58.3L260 951h-6.2z" fill="#222222" p-id="2546"></path><path d="M77.8 404m-16 0a16 16 0 1 0 32 0 16 16 0 1 0-32 0Z" fill="#222222" p-id="2547"></path><path d="M893.8 267v559c0 16.6-13.4 30-30 30h-612c-16.6 0-30-13.4-30-30V149.5c0-16.6 13.4-30 30-30h494.5c81.4 0 147.5 66.1 147.5 147.5z" fill="#FFFFFF" p-id="2548"></path><path d="M881.8 267v559c0 16.6-13.4 30-30 30h-574c-16.6 0-30-13.4-30-30V149.5c0-16.6 13.4-30 30-30h456.5c81.4 0 147.5 66.1 147.5 147.5z" fill="#87FFFE" p-id="2549"></path><path d="M859.8 856h-608c-22.1 0-40-17.9-40-40V159.5c0-22.1 17.9-40 40-40h490.5c86.8 0 157.5 70.7 157.5 157.5v539c0 22.1-17.9 40-40 40z m-608-716.5c-11 0-20 9-20 20V816c0 11 9 20 20 20h608c11 0 20-9 20-20V277c0-75.8-61.7-137.5-137.5-137.5H251.8z" fill="#222222" p-id="2550"></path><path d="M643.8 268h-332c-5.5 0-10-4.5-10-10s4.5-10 10-10h332c5.5 0 10 4.5 10 10s-4.5 10-10 10zM455.8 356h-144c-5.5 0-10-4.5-10-10s4.5-10 10-10h144c5.5 0 10 4.5 10 10s-4.5 10-10 10z" fill="#222222" p-id="2551"></path><path d="M742.3 129.5c81.5 0 146.5 66 146.5 147.5-27-18.5-127-18.5-127-38.5 0-27.5 31-75-19.5-109z" fill="#FFFFFF" p-id="2552"></path><path d="M762.3 129.5c57.5 0 126.5 63 126.5 144.5-27-18.5-107-15.5-107-35.5 0-27.5 31-75-19.5-109z" fill="#FFDF00" p-id="2553"></path><path d="M898.8 296l-15.7-10.7c-10.5-7.2-37.8-11.8-62-15.8-16.2-2.7-31.5-5.3-43.4-8.7-7.1-2-26-7.5-26-22.3 0-8.1 2.1-16.9 4.4-26.3 6.2-26 12.7-52.9-19.4-74.4l-27.2-18.3h32.8c41.7-0.1 81.7 16.5 110.9 46.2 29.4 29.6 45.7 69.6 45.6 111.3v19z m-127-59c1.4 1 5.5 3.2 16.3 5.9 10.2 2.5 22.9 4.6 36.3 6.9 19.8 3.3 38.9 6.5 53.4 11.3-6.8-59.1-51-106.9-108-118.8 17.5 25.5 10.6 54.1 5.7 74.6-1.7 7.5-3.4 14.5-3.7 20.1z" fill="#222222" p-id="2554"></path><path d="M184.8 450h281.7c27.8 0 90.3-94 124-94h337.3c16.6 0 30 13.4 30 30v536c0 16.6-13.4 30-30 30h-743c-16.6 0-30-13.4-30-30V480c-0.1-16.5 13.4-30 30-30z" fill="#FFFFFF" p-id="2555"></path><path d="M198.8 450h262.7c27.8 0 90.3-94 124-94h327.3c16.6 0 30 13.4 30 30v526c0 16.6-13.4 30-30 30h-714c-16.6 0-30-13.4-30-30V480c-0.1-16.5 13.4-30 30-30z" fill="#FFDF00" p-id="2556"></path><path d="M917.8 952h-62c-5.5 0-10-4.5-10-10s4.5-10 10-10h62c11 0 20-9 20-20V386c0-11-9-20-20-20H590.4c-13.5 0-40.6 27.4-60.5 47.4-28.6 28.9-47 46.6-63.5 46.6H174.8c-11 0-20 9-20 20v432c0 11 9 20 20 20h533.5c5.5 0 10 4.5 10 10s-4.5 10-10 10H174.8c-22.1 0-40-17.9-40-40V480c0-22.1 17.9-40 40-40h291.7c1.2 0 6.2-0.8 18.5-11.1 9.3-7.8 19.8-18.4 30.9-29.5C543 372 568.6 346 590.4 346h327.3c22.1 0 40 17.9 40 40v526c0.1 22.1-17.9 40-39.9 40z" fill="#222222" p-id="2557"></path><path d="M782.8 942m-16 0a16 16 0 1 0 32 0 16 16 0 1 0-32 0Z" fill="#222222" p-id="2558"></path><path d="M853.8 778h-207c-5.5 0-10-4.5-10-10s4.5-10 10-10h207c5.5 0 10 4.5 10 10s-4.5 10-10 10z m0-130h-207c-5.5 0-10-4.5-10-10s4.5-10 10-10h207c5.5 0 10 4.5 10 10s-4.5 10-10 10z" fill="#222222" p-id="2559"></path><path d="M307.9 628c11.1 0 20.1 9.1 20.1 20.2s-9.1 20.1-20.2 20.1-20.1-9.1-20.1-20.2c0.1-11.1 9-20.1 20.2-20.1z m159.7 0c11.1 0 20.1 9 20.1 20.2 0 11.1-9 20.1-20.2 20.1-11.1 0-20.1-9-20.1-20.2 0-11.1 9-20.1 20.2-20.1zM439 717.1c-8.9 28.4-39.1 44.2-67.5 35.3-17-5.3-30.2-18.7-35.4-35.7 7.8 0.1 76.7 0.4 102.9 0.4z" fill="#222222" p-id="2560"></path><path d="M387.6 757.9c-25 0-47-16.4-54.3-40.3-0.5-1.6 0.4-3.3 2-3.7 0.3-0.1 0.6-0.1 0.9-0.1 2.8 0 13.2 0 26.6 0.1 25.1 0.1 59.4 0.3 76.3 0.3 1.7 0 3 1.3 3 3 0 0.3 0 0.6-0.1 0.9-7.6 23.7-29.6 39.8-54.4 39.8z m-47.3-38.1c10.4 26.1 39.9 38.9 66 28.5a50.77 50.77 0 0 0 28.4-28.2c-18 0-49-0.2-72.1-0.3h-22.3z" fill="#222222" p-id="2561"></path><path d="M387.6 729.8c-15.4 0-28.9 4.5-36.2 11.1 20.5 18.6 51.9 18.6 72.4 0-7.3-6.6-20.8-11.1-36.2-11.1z" fill="#FF1834" p-id="2562"></path></svg>