<?xml version="1.0" encoding="UTF-8"?>
<svg width="436px" height="260px" viewBox="0 0 436 260" version="1.1" xmlns="http://www.w3.org/2000/svg" xmlns:xlink="http://www.w3.org/1999/xlink">
    <title>improve-visibility</title>
    <defs>
        <circle id="path-1" cx="83.5244632" cy="83.8536772" r="64.0799999"></circle>
        <linearGradient x1="122.90365%" y1="50.1504493%" x2="-37.950571%" y2="49.4616361%" id="linearGradient-3">
            <stop stop-color="#DBE8F1" stop-opacity="0.8" offset="0%"></stop>
            <stop stop-color="#DBE8F1" stop-opacity="0.76" offset="2%"></stop>
            <stop stop-color="#DBE8F1" stop-opacity="0.44" offset="25%"></stop>
            <stop stop-color="#DBE8F1" stop-opacity="0.2" offset="43%"></stop>
            <stop stop-color="#DBE8F1" stop-opacity="0.06" offset="56%"></stop>
            <stop stop-color="#DBE8F1" stop-opacity="0" offset="64%"></stop>
        </linearGradient>
    </defs>
    <g id="页面-1" stroke="none" stroke-width="1" fill="none" fill-rule="evenodd">
        <g id="improve-visibility">
            <path d="M203.15,259.5 C157.35,259.5 123.09,249.56 76.74,222.82 C25.49,193.26 0.89,162.82 1.51,129.82 C2,104.83 20.65,76.31 57,45.08 C85.6,20.5 157.13,0.5 216.44,0.5 L218,0.5 C256.14,0.73 268.28,4.83 290.31,12.28 C303.5,16.74 319.92,22.28 347.39,28.96 C369.49,34.31 391.59,45.84 408.01,60.57 C425.31,76.08 434.72,93.57 434.503772,109.69 C434.06,164.81 401.35,191.04 377.5,210.19 C375.61,211.7 373.78,213.19 372,214.62 C347.95,234.25 261,257.62 218,259.2 C212.72,259.4 207.86,259.5 203.15,259.5 Z" id="路径" fill="#1C262B" fill-rule="nonzero"></path>
            <path d="M216.44,1 L218,1 C256.06,1.23 268.17,5.32 290.15,12.75 C303.35,17.22 319.78,22.75 347.28,29.44 C369.28,34.78 391.28,46.26 407.68,60.94 C424.87,76.36 434.22,93.67 434.003796,109.69 C433.8,134.04 427.45,154.69 414.58,172.96 C403.48,188.7 389.5,199.91 377.17,209.8 C375.28,211.31 373.44,212.8 371.67,214.23 C360.4,223.43 334.83,234.05 301.52,243.38 C270.52,252.06 238.52,257.93 217.97,258.71 C212.7,258.9 207.86,259 203.15,259 C157.45,259 123.25,249.08 76.99,222.39 C55.56,210 39.25,197.86 27.11,185.2 C10.09,167.45 1.65,148.84 2,129.87 C2.48,105 21.09,76.59 57.31,45.46 C70.65,34 95.18,22.65 124.61,14.32 C155,5.73 187.57,1 216.44,1 M216.44,5.68434189e-14 C156,5.68434189e-14 84.57,20.73 56.66,44.71 C28.52,68.89 1.59,99.61 1,129.85 C0.18,173.3 44.33,204.71 76.48,223.25 C125.54,251.55 159.61,260 203.15,260 C207.97,260 212.91,259.9 218,259.7 C260.49,258.1 347.51,235.24 372.3,215.01 C397.09,194.78 434.52,169.31 435.003831,109.7 C435.47,75.06 392.62,39.41 347.51,28.47 C273.62,10.55 278.81,0.37 218,5.68434189e-14 L216.44,5.68434189e-14 Z" id="形状" fill="#1C262B" fill-rule="nonzero"></path>
            <path d="M367.47,248.41 C359.28989,256.793735 345.865285,256.968255 337.47,248.8 L271.31,184.35 L300.94,153.93 L367.1,218.38 C371.132759,222.312358 373.43752,227.686132 373.506915,233.31834 C373.576309,238.950548 371.404648,244.379476 367.47,248.41 L367.47,248.41 Z" id="路径" fill="#315562" fill-rule="nonzero"></path>
            <path d="M227.92,22.109073 C179.452229,21.8895929 139.982569,61.001631 139.760896,109.469401 C139.541083,157.93717 178.652848,197.407101 227.120616,197.629112 C275.588384,197.849258 315.058586,158.737767 315.280889,110.27 C315.495886,61.8035463 276.386408,22.3359228 227.92,22.109073 L227.92,22.109073 Z M227.24,174.000706 C191.850128,173.839477 163.291029,145.020316 163.450639,109.630443 C163.611591,74.2405704 192.430557,45.681275 227.820432,45.840645 C263.210306,46.0013537 291.769798,74.8201248 291.610667,110.21 C291.53591,127.205952 284.711782,143.476044 272.639449,155.4396 C260.567117,167.403155 244.235926,174.079744 227.24,174.000706 L227.24,174.000706 Z" id="形状" fill="#6D7F91" fill-rule="nonzero"></path>
            <circle id="椭圆形" fill="#2B3B41" fill-rule="nonzero" cx="226.89" cy="108.3" r="69.29"></circle>
            <g id="Clipped" transform="translate(144.000000, 26.000000)">
                <mask id="mask-2" fill="white">
                    <use xlink:href="#path-1"></use>
                </mask>
                <g id="椭圆形" transform="translate(83.524463, 83.853677) rotate(-21.870000) translate(-83.524463, -83.853677) "></g>
            </g>
            <g id="编组" transform="translate(256.000000, 150.000000)" fill="#315562" fill-rule="nonzero" stroke="#315562">
                <rect id="矩形" transform="translate(9.411516, 26.036435) rotate(-27.800000) translate(-9.411516, -26.036435) " x="0.58651583" y="22.9914352" width="17.6500001" height="6.09000002" rx="1.86"></rect>
                <circle id="椭圆形" cx="24.89" cy="13.84" r="3.14"></circle>
                <circle id="椭圆形" cx="32.94" cy="3.84" r="3.14"></circle>
            </g>
            <polygon id="路径" fill="#006EFF" fill-rule="nonzero" points="208.68 59.46 206.27 66 199.75 68.35 206.25 70.76 208.6 77.28 211.01 70.78 217.52 68.43 211 66 208.65 59.48"></polygon>
            <polygon id="路径" fill="#CDDCE6" fill-rule="nonzero" points="272.16 80.78 269.93 86.78 263.93 88.95 269.93 91.18 272.1 97.18 274.33 91.18 280.33 89.01 274.33 86.78"></polygon>
            <polygon id="路径" fill="#655C80" fill-rule="nonzero" points="264.07 138.9 261.77 145.08 255.57 147.32 261.75 149.61 263.99 155.81 266.28 149.63 272.48 147.39 266.3 145.1"></polygon>
            <polygon id="路径" fill="#CDDCE6" fill-rule="nonzero" points="189.32 115.4 187.1 121.4 181.1 123.57 187.1 125.8 189.27 131.8 191.49 125.8 197.49 123.63 191.49 121.4"></polygon>
            <path d="M184.55,80.71 C184.55,80.71 157.55,109.84 124.32,109.710434 C91.09,109.58 64.32,80.19 64.32,80.19 C64.32,80.19 91.32,51.07 124.55,51.1896301 C157.78,51.31 184.55,80.71 184.55,80.71 Z" id="路径" fill="#FFFFFF" fill-rule="nonzero"></path>
            <circle id="椭圆形" fill="#000000" fill-rule="nonzero" cx="124.46" cy="80.44" r="22.18"></circle>
            <circle id="椭圆形" fill="#FFFFFF" fill-rule="nonzero" cx="124.46" cy="80.44" r="7.46"></circle>
            <path d="M125.09,79.26 C124.054848,69.4914121 120.701854,60.1112579 115.31,51.9 C86.51,56.32 64.36,80.17 64.36,80.17 C64.36,80.17 89.24,107.44 120.75,109.55 C124.718346,99.9782667 126.210958,89.560937 125.09,79.26 L125.09,79.26 Z" id="路径" fill="url(#linearGradient-3)" fill-rule="nonzero"></path>
            <polygon id="路径" fill="#CDDCE6" fill-rule="nonzero" points="357 122.36 354.37 129.53 347.2 132.16 354.37 134.78 357 142 359.63 134.82 366.8 132.2 359.63 129.57"></polygon>
            <polygon id="路径" fill="#F36C3D" fill-rule="nonzero" points="67.91 152.36 64.8 160.84 56.32 163.94 64.8 167 67.91 175.49 71 167 79.48 163.9 71 160.84 67.9 152.36"></polygon>
            <polygon id="路径" fill="#7D728E" fill-rule="nonzero" points="168.59 14.36 165.81 22 158.21 24.78 165.81 27.56 168.59 35.17 171.37 27.56 179 24.74 171.37 22 168.6 14.4"></polygon>
            <polygon id="路径" fill="#7D728E" fill-rule="nonzero" points="189.29 221.06 186.78 227.93 179.91 230.44 186.78 232.95 189.29 239.82 191.8 233 198.67 230.49 191.8 227.98 189.29 221.11"></polygon>
            <text id="高效无门槛" font-family="PingFangSC-Semibold, PingFang SC" font-size="14" font-weight="500" fill="#CDDCE6">
                <tspan x="209" y="125">高效无门槛</tspan>
            </text>
            <text id="腾讯云SCF" font-family="PingFangSC-Semibold, PingFang SC" font-size="14" font-weight="500" fill="#006EFF">
                <tspan x="180" y="96">腾讯云SCF</tspan>
            </text>
            <text id="小成本项目" font-family="PingFangSC-Semibold, PingFang SC" font-size="14" font-weight="500" fill="#655C80">
                <tspan x="180" y="152">小成本项目</tspan>
            </text>
        </g>
    </g>
</svg>