<?xml version="1.0" standalone="no"?><!DOCTYPE svg PUBLIC "-//W3C//DTD SVG 1.1//EN" "http://www.w3.org/Graphics/SVG/1.1/DTD/svg11.dtd"><svg t="1595939599277" class="icon" viewBox="0 0 1024 1024" version="1.1" xmlns="http://www.w3.org/2000/svg" p-id="2904" xmlns:xlink="http://www.w3.org/1999/xlink" width="200" height="200"><defs><style type="text/css"></style></defs><path d="M358.4 298.666667a85.333333 85.333333 0 0 1 85.333333-85.333334h85.333334a42.666667 42.666667 0 0 0 42.666666-42.666666 42.666667 42.666667 0 0 0-42.666666-42.666667h-85.333334a170.666667 170.666667 0 0 0-170.666666 170.666667v597.333333a42.666667 42.666667 0 0 0 42.666666 42.666667 42.666667 42.666667 0 0 0 42.666667-42.666667z" fill="#666666" p-id="2905"></path><path d="M145.066667 426.666667m42.666666 0l298.666667 0q42.666667 0 42.666667 42.666666l0 0q0 42.666667-42.666667 42.666667l-298.666667 0q-42.666667 0-42.666666-42.666667l0 0q0-42.666667 42.666666-42.666666Z" fill="#666666" p-id="2906"></path><path d="M865.706667 426.666667a42.666667 42.666667 0 0 0-37.12 21.333333l-85.333334 149.333333-85.333333-149.333333a42.666667 42.666667 0 0 0-37.12-21.333333 42.666667 42.666667 0 0 0-36.693333 64l110.933333 192-110.933333 192a42.666667 42.666667 0 0 0 36.693333 64 42.666667 42.666667 0 0 0 37.12-21.333334l85.333333-149.333333 85.333334 149.333333a42.666667 42.666667 0 0 0 37.12 21.333334 42.666667 42.666667 0 0 0 36.693333-64l-110.933333-192 110.933333-192a42.666667 42.666667 0 0 0-36.693333-64z" fill="#666666" p-id="2907"></path></svg>