<?xml version="1.0" standalone="no"?><!DOCTYPE svg PUBLIC "-//W3C//DTD SVG 1.1//EN" "http://www.w3.org/Graphics/SVG/1.1/DTD/svg11.dtd"><svg t="1606836220154" class="icon" viewBox="0 0 1024 1024" version="1.1" xmlns="http://www.w3.org/2000/svg" p-id="3172" xmlns:xlink="http://www.w3.org/1999/xlink" width="200" height="200"><defs><style type="text/css"></style></defs><path d="M77.59872 472.388267c-1.993387 0-2.491733-0.996693-1.49504-2.491734l10.461867-13.448533c0.996693-1.49504 3.488427-2.491733 5.4784-2.491733h177.851733c1.989973 0 2.491733 1.49504 1.491627 2.99008l-8.465067 12.9536c-1.000107 1.491627-3.488427 2.986667-4.983467 2.986666zM2.372267 518.222507c-1.989973 0-2.491733-0.996693-1.491627-2.491734l10.461867-13.448533c0.99328-1.498453 3.485013-2.491733 5.4784-2.491733h227.167573c1.993387 0 2.99008 1.491627 2.491733 2.986666l-3.986773 11.956907c-0.498347 1.993387-2.491733 2.99008-4.481707 2.99008zM122.9312 564.053333c-1.989973 0-2.491733-1.49504-1.49504-2.99008l6.976853-12.45184c0.996693-1.49504 2.99008-2.99008 4.983467-2.99008h99.6352c1.989973 0 2.986667 1.49504 2.986667 3.488427l-0.996694 11.953493c0 1.993387-1.993387 3.488427-3.488426 3.488427zM640.037547 463.42144c-31.382187 7.970133-52.804267 13.950293-83.694934 21.920427-7.468373 1.993387-7.96672 2.491733-14.445226-4.983467-7.471787-8.465067-12.950187-13.94688-23.415467-18.930347-31.382187-15.44192-61.771093-10.9568-90.166613 7.4752-33.877333 21.917013-51.31264 54.299307-50.814294 94.651734 0.498347 39.85408 27.897173 72.73472 67.252907 78.21312 33.877333 4.48512 62.272853-7.471787 84.691627-32.877227 4.481707-5.481813 8.465067-11.45856 13.448533-18.432h-96.146773c-10.461867 0-12.9536-6.478507-9.465174-14.946987 6.475093-15.44192 18.432-41.34912 25.40544-54.30272 1.49504-2.986667 4.983467-7.970133 12.455254-7.970133h181.336746c-0.996693 13.448533-0.996693 26.903893-2.99008 40.352427-5.4784 35.87072-18.930347 68.747947-40.850773 97.641813-35.867307 47.32928-82.694827 76.721493-141.981013 84.691627-48.820907 6.475093-94.153387-2.99008-134.007467-32.88064-36.864-27.897173-57.787733-64.761173-63.269547-110.592-6.475093-54.306133 9.465173-103.123627 42.345814-145.967787 35.36896-46.329173 82.199893-75.721387 139.48928-86.186667 46.830933-8.465067 91.665067-2.986667 132.017493 24.41216 26.402133 17.435307 45.33248 41.34912 57.787733 70.2464 2.99008 4.481707 0.996693 6.970027-4.983466 8.465067z" fill="#00ACC1" p-id="3173"></path><path d="M804.932267 738.914987c-45.329067-0.996693-86.678187-13.950293-121.5488-43.840854-29.395627-25.40544-47.827627-57.787733-53.807787-96.146773-8.966827-56.296107 6.478507-106.113707 40.352427-150.449493 36.369067-47.824213 80.206507-72.73472 139.48928-83.196587 50.814293-8.966827 98.64192-3.986773 141.981013 25.408853 39.355733 26.897067 63.767893 63.266133 70.2464 111.090347 8.465067 67.25632-10.963627 122.053973-57.2928 168.881493-32.88064 33.3824-73.233067 54.30272-119.56224 63.767894-13.448533 2.491733-26.90048 2.99008-39.85408 4.48512z m118.56896-201.263787c-0.498347-6.478507-0.498347-11.45856-1.49504-16.442027-8.966827-49.319253-54.299307-77.216427-101.628587-66.2528-46.329173 10.458453-76.219733 39.850667-87.176533 86.678187-8.97024 38.8608 9.960107 78.216533 45.827413 94.1568 27.40224 11.956907 54.801067 10.461867 81.2032-2.99008 39.355733-20.425387 60.777813-52.30592 63.269547-95.15008z" fill="#00ACC1" p-id="3174"></path></svg>