<?xml version="1.0" standalone="no"?><!DOCTYPE svg PUBLIC "-//W3C//DTD SVG 1.1//EN" "http://www.w3.org/Graphics/SVG/1.1/DTD/svg11.dtd"><svg t="1606822914708" class="icon" viewBox="0 0 1024 1024" version="1.1" xmlns="http://www.w3.org/2000/svg" p-id="10044" xmlns:xlink="http://www.w3.org/1999/xlink" width="200" height="200"><defs><style type="text/css"></style></defs><path d="M188 122h648v780H188z" fill="#BCBCF7" p-id="10045"></path><path d="M792 122a44 44 0 0 1 44 44v692a44 44 0 0 1-44 44H232a44 44 0 0 1-44-44V166a44 44 0 0 1 44-44h560m0-20H232a64 64 0 0 0-64 64v692a64 64 0 0 0 64 64h560a64 64 0 0 0 64-64V166a64 64 0 0 0-64-64z" fill="#5420F2" p-id="10046"></path><path d="M512 766a254 254 0 1 1 179.61-74.39A252.34 252.34 0 0 1 512 766z" fill="#FFFFFF" p-id="10047"></path><path d="M512 268a243.18 243.18 0 1 1-95 19.17A242.46 242.46 0 0 1 512 268m0-20c-145.8 0-264 118.2-264 264s118.2 264 264 264 264-118.2 264-264-118.2-264-264-264z" fill="#5420F2" p-id="10048"></path><path d="M512 630a118 118 0 1 1 118-118 118.13 118.13 0 0 1-118 118z" fill="#BCBCF7" p-id="10049"></path><path d="M512 404a108 108 0 1 1-76.37 31.63A107.29 107.29 0 0 1 512 404m0-20a128 128 0 1 0 128 128 128 128 0 0 0-128-128z" fill="#5420F2" p-id="10050"></path><path d="M242 200a24 24 0 1 1 24-24 24 24 0 0 1-24 24z" fill="#FFFFFF" p-id="10051"></path><path d="M242 162a14 14 0 1 1-14 14 14 14 0 0 1 14-14m0-20a34 34 0 1 0 34 34 34 34 0 0 0-34-34z" fill="#5420F2" p-id="10052"></path><path d="M782 200a24 24 0 1 1 24-24 24 24 0 0 1-24 24z" fill="#FFFFFF" p-id="10053"></path><path d="M782 162a14 14 0 1 1-14 14 14 14 0 0 1 14-14m0-20a34 34 0 1 0 34 34 34 34 0 0 0-34-34z" fill="#5420F2" p-id="10054"></path><path d="M512 512m-34 0a34 34 0 1 0 68 0 34 34 0 1 0-68 0Z" fill="#5420F2" p-id="10055"></path><path d="M242 872a24 24 0 1 1 24-24 24 24 0 0 1-24 24z" fill="#FFFFFF" p-id="10056"></path><path d="M242 834a14 14 0 1 1-14 14 14 14 0 0 1 14-14m0-20a34 34 0 1 0 34 34 34 34 0 0 0-34-34z" fill="#5420F2" p-id="10057"></path><path d="M782 872a24 24 0 1 1 24-24 24 24 0 0 1-24 24z" fill="#FFFFFF" p-id="10058"></path><path d="M782 834a14 14 0 1 1-14 14 14 14 0 0 1 14-14m0-20a34 34 0 1 0 34 34 34 34 0 0 0-34-34zM279.29 810.71a10 10 0 0 1 0-14.14l127.28-127.28a10 10 0 0 1 14.14 0 10 10 0 0 1 0 14.14L293.43 810.71a10 10 0 0 1-14.14 0zM712 176a30 30 0 0 0-30-30H342a30 30 0 0 0 0 60h340a30 30 0 0 0 30-30zM712 848a30 30 0 0 0-30-30H342a30 30 0 0 0 0 60h340a30 30 0 0 0 30-30z" fill="#5420F2" p-id="10059"></path></svg>