<?xml version="1.0" standalone="no"?><!DOCTYPE svg PUBLIC "-//W3C//DTD SVG 1.1//EN" "http://www.w3.org/Graphics/SVG/1.1/DTD/svg11.dtd"><svg t="1606822861452" class="icon" viewBox="0 0 1024 1024" version="1.1" xmlns="http://www.w3.org/2000/svg" p-id="7337" xmlns:xlink="http://www.w3.org/1999/xlink" width="200" height="200"><defs><style type="text/css"></style></defs><path d="M818 343.245h-51v-96.927C767 112.558 652.76 4 512 4S257 112.558 257 246.318v96.927h-51c-56.1 0-102 43.618-102 96.927v484.636c0 53.31 45.9 96.927 102 96.927h612c56.1 0 102-43.618 102-96.927V440.172c0-53.31-45.9-96.927-102-96.927zM512 779.418c-56.1 0-102-43.618-102-96.927 0-53.309 45.9-96.928 102-96.928s101.999 43.618 101.999 96.927c0 53.31-45.9 96.928-102 96.928z m158.1-436.173H353.9v-96.927c0-82.873 70.89-150.237 158.1-150.237s158.1 67.364 158.1 150.237v96.927z" fill="#6E9FF4" p-id="7338"></path></svg>