<?xml version="1.0" standalone="no"?><!DOCTYPE svg PUBLIC "-//W3C//DTD SVG 1.1//EN" "http://www.w3.org/Graphics/SVG/1.1/DTD/svg11.dtd"><svg t="1596880382927" class="icon" viewBox="0 0 1024 1024" version="1.1" xmlns="http://www.w3.org/2000/svg" p-id="7264" xmlns:xlink="http://www.w3.org/1999/xlink" width="200" height="200"><defs><style type="text/css"></style></defs><path d="M537.7 338.2c34.4 0 66.8 13.4 91.1 37.7 24.3 24.3 37.7 56.6 37.7 90.9v0.9l-0.2 40.9 40.7 4.1c14.3 1.5 27.6 8.2 37.3 18.9 9.8 10.8 15.2 24.8 15.2 39.4 0 32.3-26.3 58.6-58.6 58.6-0.8 0-1.7 0-2.6-0.1l-47-2.1v2.1H352.1l-2-0.1c-23.1-0.9-44.7-10.5-60.7-27.2-16.1-16.7-25-38.7-25-61.9 0-49.1 40-89.1 89.1-89.1 4.6 0 9.2 0.4 13.8 1.1l36.6 5.6 12.6-34.8c8.9-24.7 25-45.8 46.4-61.2 21.9-15.4 47.7-23.7 74.8-23.7M497.3 72c-112.6 0-225.2 43-311.1 128.9C42 345.1 18.8 564.6 116.7 733l-52.3-16.8L50.7 759l80.9 26 42.8 13.8L214.2 675l-42.8-13.8-15.8 49.1c-9.2-15.9-17.4-32.5-24.3-49.7-19.2-47.3-28.9-97.3-28.9-148.7 0-51.3 9.7-101.3 28.9-148.7 19.9-49 49.1-92.9 86.8-130.6 37.7-37.7 81.7-66.9 130.6-86.8C396 126.7 446 117 497.3 117s101.3 9.7 148.7 28.9c28.8 11.7 55.9 26.6 80.9 44.6l32.2-32.2C681.6 100.8 589.5 72 497.3 72z m352.3 148.4l-39.8 123.8 42.8 13.8 15-46.7c9.8 16.6 18.4 34 25.8 52.1 19.2 47.3 28.9 97.3 28.9 148.7 0 51.3-9.7 101.3-28.9 148.7-19.9 49-49.1 92.9-86.8 130.6C768.9 829 725 858.2 676 878.1c-47.3 19.2-97.3 28.9-148.7 28.9-51.3 0-101.3-9.7-148.7-28.9-28.8-11.7-55.9-26.6-80.9-44.6l-32.2 32.2C330 913.5 428.2 951 534.2 951c101.9 0 211-34.6 304.2-127.8 145.8-145.8 167.9-368.6 66.1-537.7l55 17.7 13.8-42.8-80.9-26-42.8-14z m-311.9 72.8c-75.3 0-139.3 47.8-163.5 114.8-6.7-1-13.6-1.6-20.6-1.6-74.1 0-134.1 60.1-134.1 134.1 0 72.4 57.4 131.4 129.1 134v0.1h347.7v-0.1c1.5 0.1 3.1 0.1 4.6 0.1 57.2 0 103.6-46.4 103.6-103.6 0-53.6-40.8-97.8-93-103.1v-1c0-95.8-77.9-173.7-173.8-173.7z" fill="#ffffff" p-id="7265"></path></svg>