<?xml version="1.0" standalone="no"?><!DOCTYPE svg PUBLIC "-//W3C//DTD SVG 1.1//EN" "http://www.w3.org/Graphics/SVG/1.1/DTD/svg11.dtd"><svg t="1607872554890" class="icon" viewBox="0 0 1024 1024" version="1.1" xmlns="http://www.w3.org/2000/svg" p-id="2171" xmlns:xlink="http://www.w3.org/1999/xlink" width="200" height="200"><defs><style type="text/css"></style></defs><path d="M849.170732 0c97.404878 0 174.829268 77.42439 174.829268 174.829268v674.341464c0 97.404878-77.42439 174.829268-174.829268 174.829268H174.829268c-97.404878 0-174.829268-77.42439-174.829268-174.829268V174.829268c0-97.404878 77.42439-174.829268 174.829268-174.829268h674.341464z m-109.892683 596.917073L499.512195 751.765854l-239.765854-154.848781c-9.990244-4.995122-22.478049-4.995122-29.970731 4.995122l-2.497561 2.497561c-7.492683 9.990244-2.497561 24.97561 7.492683 29.970732l252.253658 162.341463c2.497561 0 2.497561 2.497561 4.995122 2.497561h9.990244c2.497561 0 4.995122-2.497561 4.995122-2.497561l252.253659-162.341463c9.990244-7.492683 12.487805-19.980488 7.492683-29.970732-2.497561-12.487805-17.482927-14.985366-27.473171-7.492683z m0-89.912195L499.512195 661.853659l-239.765854-154.848781c-9.990244-4.995122-22.478049-4.995122-29.970731 4.995122l-2.497561 2.497561c-7.492683 9.990244-2.497561 24.97561 7.492683 29.970732l252.253658 162.341463c2.497561 0 2.497561 2.497561 4.995122 2.497561h9.990244c2.497561 0 4.995122-2.497561 4.995122-2.497561l252.253659-162.341463c9.990244-7.492683 12.487805-19.980488 7.492683-29.970732-2.497561-12.487805-17.482927-14.985366-27.473171-7.492683zM499.512195 249.756098h-4.995122c-2.497561 0-4.995122 2.497561-4.995122 2.497561L234.770732 414.595122c-7.492683 4.995122-9.990244 12.487805-9.990244 19.980488 0 7.492683 2.497561 14.985366 9.990244 19.980488l252.253658 162.341463c2.497561 0 2.497561 2.497561 4.995122 2.497561h9.990244c2.497561 0 4.995122-2.497561 4.995122-2.497561l252.253659-162.341463c4.995122-2.497561 9.990244-9.990244 9.990243-14.985366v-2.497561c0-7.492683-2.497561-14.985366-9.990243-19.980488l-252.253659-162.341463c-2.497561 0-2.497561-2.497561-4.995122-2.497561 0-2.497561 0-2.497561-2.497561-2.497561z" fill="#6966FD" p-id="2172"></path></svg>