<?xml version="1.0" standalone="no"?><!DOCTYPE svg PUBLIC "-//W3C//DTD SVG 1.1//EN" "http://www.w3.org/Graphics/SVG/1.1/DTD/svg11.dtd"><svg t="1606823440132" class="icon" viewBox="0 0 1280 1024" version="1.1" xmlns="http://www.w3.org/2000/svg" p-id="15583" xmlns:xlink="http://www.w3.org/1999/xlink" width="250" height="200"><defs><style type="text/css"></style></defs><path d="M957 660v60.5c0 37.6-30.4 68-68 68H478c-37.6 0-68-30.4-68-68V660c0-18.8-15.2-34-34-34s-34 15.2-34 34v59.5c0 75.4 61.1 136.5 136.5 136.5h410c75.4 0 136.5-61.1 136.5-136.5V660c0-18.8-15.2-34-34-34s-34 15.2-34 34z" p-id="15584"></path><path d="M535 436.5c13.5 13.5 35.5 13.5 49 0l65-65V623c0 18.8 15.2 34 34 34s34-15.2 34-34V371.5l65 65c13.5 13.5 35.5 13.5 49 0s13.5-35.5 0-49L709.5 266c-14.6-14.6-38.3-14.6-52.9 0L535 387.5c-13.6 13.6-13.6 35.5 0 49z" fill="#00F1A3" p-id="15585"></path></svg>